<svg width="40" height="40" viewBox="0 0 40 40" fill="none" xmlns="http://www.w3.org/2000/svg">
<mask id="mask0_1_4280" style="mask-type:alpha" maskUnits="userSpaceOnUse" x="0" y="0" width="40" height="40">
<rect width="40" height="40" fill="white"/>
</mask>
<g mask="url(#mask0_1_4280)">
<path fill-rule="evenodd" clip-rule="evenodd" d="M14.9067 0.10439C13.762 0.350186 12.585 0.972728 11.6866 1.80753C10.7596 2.66891 10.1375 3.65006 9.78724 4.80305C9.69382 5.1106 9.20473 7.88863 8.70031 10.9765L7.78327 16.5908L7.48142 16.9036C7.31545 17.0756 7.07121 17.445 6.93878 17.7244C6.70127 18.2255 6.69752 18.2526 6.67219 19.6572C6.64334 21.2544 6.71941 21.6919 7.14103 22.3544C7.6739 23.1918 8.71134 23.7443 9.75073 23.7443C9.89912 23.7443 10.0214 23.7706 10.0224 23.8029C10.0234 23.8352 9.509 27.2631 8.87911 31.4206C8.20395 35.8776 7.75497 39.0634 7.78522 39.1837C7.81337 39.2959 7.95534 39.5176 8.10076 39.6762C8.35773 39.9566 8.38283 39.9655 8.99998 39.9935C9.69272 40.025 9.97972 39.9468 10.2576 39.651C10.3862 39.5142 10.9185 37.8444 12.2798 33.3081L14.1276 27.1508L14.787 26.7375L15.4464 26.3242H19.718H23.9895L24.642 26.7346L25.2946 27.1451L25.5963 28.1614C25.9176 29.2437 26.1033 29.5295 26.4852 29.5295C26.7217 29.5295 27.0636 29.2066 27.0636 28.9833C27.0636 28.8939 26.7294 27.7085 26.3209 26.349C25.9124 24.9895 25.5782 23.8472 25.5782 23.8107C25.5782 23.7741 26.1571 23.7443 26.8647 23.7443H28.151L28.1956 23.9983C28.276 24.4566 30.4253 38.6873 30.4253 38.761C30.4253 38.8005 30.3458 38.8329 30.2486 38.8329C30.083 38.8329 29.9974 38.5858 28.9018 34.9435C27.6744 30.863 27.6092 30.7022 27.1809 30.7022C26.9273 30.7022 26.5946 31.0255 26.5946 31.2718C26.5946 31.5248 28.9252 39.2954 29.0686 39.5207C29.312 39.9029 29.6238 40.0151 30.3728 39.9898C31.0573 39.9666 31.0651 39.9641 31.328 39.6771C31.4738 39.518 31.616 39.2965 31.6441 39.1849C31.6739 39.0662 31.2201 35.8471 30.5497 31.4218C29.9199 27.2637 29.4056 23.8352 29.4067 23.8029C29.408 23.7706 29.5304 23.7443 29.6788 23.7443C30.7184 23.7443 31.7567 23.1912 32.288 22.3544C32.6863 21.7272 32.7708 21.2858 32.7698 19.8406C32.7685 18.0747 32.6338 17.6018 31.9125 16.8299L31.543 16.4345L30.9882 13.0338C30.382 9.31751 30.3947 9.35926 29.8659 9.35926C29.6275 9.35926 29.2516 9.6572 29.2539 9.84436C29.2545 9.90003 29.4766 11.2913 29.7473 12.936C30.0179 14.5807 30.2215 15.9263 30.1996 15.9263C30.1778 15.9263 29.5248 15.8219 28.7485 15.6942C26.9106 15.392 24.9028 15.1713 22.9592 15.058C20.6325 14.9224 15.2788 15.0569 14.6149 15.2676C14.4137 15.3315 14.229 15.7293 14.2893 15.9692C14.317 16.0796 14.4251 16.2258 14.5295 16.2943C14.6988 16.4052 14.8828 16.4092 16.2203 16.3304C21.1775 16.0387 24.8643 16.228 29.1745 16.9954C30.378 17.2097 30.7303 17.3408 31.0614 17.6977C31.5169 18.1888 31.5576 18.3575 31.5583 19.7571C31.559 21.243 31.4666 21.6143 30.9928 22.0304C30.431 22.5237 31.1698 22.4934 19.7148 22.4934C8.35789 22.4934 9.01006 22.5183 8.47305 22.0654C7.99561 21.6629 7.88717 21.3301 7.84777 20.1472C7.80633 18.9018 7.90085 18.3371 8.22569 17.8886C8.35171 17.7147 8.60157 17.4975 8.78092 17.4059C9.07769 17.2546 10.8666 16.9044 12.1612 16.7444C12.4421 16.7097 12.6771 16.6314 12.7651 16.5435C13.1628 16.1458 12.9529 15.5933 12.388 15.551C12.1234 15.5311 10.1561 15.8017 9.35077 15.9686L9.11107 16.0183L9.95189 10.832C10.4143 7.97955 10.8512 5.45225 10.9226 5.21576C11.3834 3.69149 12.4298 2.44586 13.8122 1.77633C15.0454 1.17904 14.941 1.18952 19.6757 1.18952C24.4104 1.18952 24.3059 1.17904 25.5391 1.77633C26.8661 2.41905 27.87 3.55929 28.3491 4.96808C28.4508 5.26696 28.6135 5.99286 28.7106 6.58116C28.9132 7.80732 29.0275 8.03021 29.4538 8.03021C29.8119 8.03021 30.0344 7.80138 30.0344 7.433C30.0344 6.98456 29.7328 5.30605 29.5517 4.74668C28.8455 2.56571 27.1125 0.884932 24.8612 0.197658C24.3003 0.0264451 24.1955 0.0223797 19.8711 0.00478937C16.1858 -0.0101429 15.3633 0.00635296 14.9067 0.10439ZM13.8527 23.8029C13.8534 23.8352 12.8425 27.23 11.6061 31.3472C9.48539 38.4091 9.34811 38.8329 9.18112 38.8329C9.08386 38.8329 9.0042 38.7996 9.0042 38.7592C9.0042 38.683 11.1537 24.4511 11.2336 23.9983L11.2785 23.7443H12.5649C13.2724 23.7443 13.8519 23.7706 13.8527 23.8029ZM24.5046 24.5142C24.6279 24.9162 24.7164 25.2576 24.701 25.2729C24.6857 25.2882 24.5338 25.2512 24.3635 25.1905C23.9065 25.0277 15.523 25.0277 15.0661 25.1905C14.8957 25.2512 14.744 25.2885 14.7289 25.2733C14.7019 25.2463 15.0869 23.9191 15.1556 23.8023C15.1747 23.7697 17.2356 23.7521 19.7353 23.7632L24.2803 23.7833L24.5046 24.5142Z" fill="#1E293B"/>
</g>
</svg>
