<svg width="40" height="40" viewBox="0 0 40 40" fill="none" xmlns="http://www.w3.org/2000/svg">
<mask id="mask0_1_4240" style="mask-type:alpha" maskUnits="userSpaceOnUse" x="0" y="0" width="40" height="40">
<rect width="40" height="40" fill="white"/>
</mask>
<g mask="url(#mask0_1_4240)">
<path fill-rule="evenodd" clip-rule="evenodd" d="M19.3245 0.527344C17.835 2.10992 16.2003 4.74141 15.2008 7.16539C15.0453 7.54281 14.9031 7.87648 14.885 7.90695C14.8669 7.93742 14.4578 7.55484 13.9758 7.05688C12.64 5.67633 11.2577 4.66094 9.68456 3.90438C8.72144 3.44109 8.44261 3.37391 8.18472 3.54289C7.74581 3.83047 7.27925 6.19734 7.27925 8.13664C7.27925 8.95742 7.47034 10.7773 7.62667 11.4447C7.68691 11.7021 7.72386 11.9252 7.70878 11.9402C7.69362 11.9554 7.08839 11.648 6.3637 11.2573C5.61409 10.853 4.95347 10.5469 4.83105 10.5469C4.70948 10.5469 4.5362 10.6266 4.43269 10.7301C4.2673 10.8955 4.24394 11.0097 4.19214 11.9074C4.07808 13.8853 4.35628 16.7266 4.86605 18.7891C5.24722 20.3313 5.7912 21.6048 6.48448 22.5781C6.95042 23.2322 7.87011 24.1938 8.43652 24.6191C8.68089 24.8026 8.9105 24.9772 8.94667 25.007C8.98292 25.037 8.84816 25.213 8.64714 25.3983C8.09378 25.9084 7.94605 26.2444 7.94605 26.9922C7.94605 27.4851 7.98222 27.6853 8.11722 27.9397C8.36191 28.4009 8.9462 28.8868 9.42238 29.0252L9.82128 29.1413L9.9655 29.9417C10.8214 34.6938 11.174 36.3945 11.4187 36.9513C12.0585 38.4071 13.2897 39.4528 14.8268 39.8459C15.3934 39.9909 15.7071 40 20.0918 40C24.4764 40 24.7901 39.9909 25.3567 39.8459C26.8938 39.4528 28.125 38.4071 28.7648 36.9513C29.0095 36.3945 29.3621 34.694 30.2181 29.9414L30.3623 29.1406H30.8882C31.8342 29.1406 32.6114 28.6873 33.0314 27.8906C33.2462 27.483 33.2325 26.4754 33.0062 26.0494C32.74 25.548 31.9696 24.9219 31.6191 24.9219C31.5525 24.9219 31.498 24.8867 31.498 24.8438C31.498 24.8008 31.5286 24.7656 31.566 24.7656C31.7118 24.7656 33.1118 23.3671 33.531 22.8027C34.0704 22.0765 34.6896 20.8801 34.9611 20.0391C35.7119 17.7145 36.1341 14.382 35.9914 11.9074C35.9396 11.0097 35.9162 10.8955 35.7508 10.7301C35.6473 10.6266 35.474 10.5469 35.3525 10.5469C35.23 10.5469 34.5694 10.853 33.8198 11.2573C33.0951 11.648 32.4899 11.9554 32.4747 11.9402C32.4596 11.9252 32.4966 11.7021 32.5568 11.4447C32.7132 10.7773 32.9043 8.95742 32.9043 8.13664C32.9043 6.19734 32.4377 3.83047 31.9988 3.54289C31.7409 3.37391 31.4621 3.44109 30.4989 3.90438C28.9258 4.66094 27.5435 5.67633 26.2077 7.05688C25.7257 7.55484 25.3166 7.93742 25.2985 7.90695C25.2804 7.87648 25.1382 7.54281 24.9827 7.16539C23.9832 4.74141 22.3485 2.10992 20.859 0.527344C20.4315 0.0730469 20.3252 0 20.0918 0C19.8583 0 19.752 0.0730469 19.3245 0.527344ZM19.4667 12.4414L19.4666 22.6172L19.2435 22.1484C18.1621 19.8767 16.4332 17.6948 14.6288 16.325L14.3675 16.1266L14.4595 15.1922C14.9152 10.5662 16.4506 6.32828 18.8743 3.00625C19.1715 2.59891 19.4264 2.26562 19.4407 2.26562C19.455 2.26562 19.4667 6.84469 19.4667 12.4414ZM21.4546 3.20789C23.7429 6.3643 25.2771 10.6711 25.7238 15.1922L25.816 16.1266L25.5547 16.325C23.7503 17.6948 22.0214 19.8767 20.94 22.1484L20.7169 22.6172L20.7185 12.4219C20.7202 2.28234 20.721 2.22766 20.8733 2.42188C20.9575 2.5293 21.2191 2.88305 21.4546 3.20789ZM11.4003 6.35969C12.2632 6.9975 13.4774 8.16711 14.0543 8.91633L14.3841 9.34453L14.1459 10.1996C14.0148 10.6699 13.8363 11.4062 13.7492 11.8359C13.662 12.2656 13.5789 12.6298 13.5644 12.6453C13.5383 12.6732 9.9355 5.5075 9.9355 5.42766C9.9355 5.34375 10.5854 5.75734 11.4003 6.35969ZM28.4511 9.0625C27.4579 11.0485 26.6335 12.6608 26.6191 12.6453C26.6046 12.6298 26.5215 12.2656 26.4343 11.8359C26.3472 11.4062 26.1687 10.6699 26.0376 10.1996L25.7994 9.34453L26.1292 8.91633C26.6367 8.25734 27.8734 7.03937 28.576 6.50648C29.2615 5.98656 30.1867 5.38148 30.23 5.42477C30.2448 5.43953 29.4443 7.07648 28.4511 9.0625ZM11.8886 12.0843C12.9335 14.2142 13.2657 14.9611 13.2363 15.1149C13.2149 15.2272 13.173 15.3088 13.1434 15.2963C13.1137 15.2837 12.2255 14.7364 11.1695 14.08C9.82433 13.2439 9.23472 12.8346 9.20011 12.7128C9.00691 12.0334 8.75605 10.9673 8.6812 10.5078C8.46987 9.20945 8.45714 7.24305 8.65245 6.06422C8.70198 5.76508 8.71417 5.78367 9.6023 7.50953C10.0971 8.47109 11.126 10.5298 11.8886 12.0843ZM31.6405 7.07031C31.7163 7.97742 31.6514 9.59148 31.5023 10.5078C31.4275 10.9671 31.1762 12.0349 30.9836 12.7118C30.9493 12.8323 30.3435 13.2517 28.9782 14.1C27.9021 14.7685 27.0071 15.3009 26.9893 15.283C26.8178 15.1114 27.1001 14.4709 29.1985 10.2719C31.726 5.21398 31.509 5.49844 31.6405 7.07031ZM7.51362 13.2831C9.47339 14.404 13.1419 16.7056 13.9014 17.291C15.8561 18.7975 17.4104 20.9015 18.5577 23.5938C18.75 24.0449 18.9315 24.5108 18.9611 24.6289C19.0133 24.8373 19.0053 24.8438 18.692 24.8438C18.3177 24.8438 17.6302 24.5197 16.4986 23.8099C13.6741 22.0383 10.6539 18.9718 8.09089 15.2734C7.52784 14.461 6.67581 13.1454 6.50183 12.82L6.40144 12.6321L6.66456 12.7901C6.80925 12.877 7.19136 13.0988 7.51362 13.2831ZM33.676 12.832C33.6249 12.9288 33.4478 13.2226 33.2827 13.485C32.9332 14.0405 32.9066 14.3063 33.1742 14.5738C33.5642 14.9639 33.8966 14.7995 34.3972 13.9686L34.7402 13.3995L34.7669 13.7115C34.8328 14.4791 34.4718 17.1795 34.1108 18.6193C33.6273 20.5484 33.0325 21.6548 31.8105 22.8981C31.0234 23.699 30.3565 24.1976 29.4753 24.6441L29.0813 24.8438H26.7168H24.3524L24.6635 24.6367C26.896 23.151 29.3062 20.8735 31.25 18.4128C31.8601 17.6406 31.8885 17.2577 31.3521 17.0355C31.0072 16.8927 30.8401 17.0205 29.9282 18.125C27.926 20.5503 25.5022 22.7338 23.4511 23.9602C22.3633 24.6106 21.8464 24.8438 21.4918 24.8438C21.1782 24.8438 21.1702 24.8373 21.2224 24.6289C21.252 24.5108 21.4335 24.0449 21.6258 23.5938C22.7725 20.9027 24.3275 18.7974 26.2799 17.2927C26.8847 16.8266 29.0003 15.4743 30.9902 14.2817C32.6614 13.2802 33.7068 12.665 33.7468 12.6594C33.7591 12.6577 33.7272 12.7353 33.676 12.832ZM6.42386 14.947C9.07894 19.0179 12.1258 22.297 15.2587 24.4552L15.8227 24.8438H13.4625H11.1022L10.7082 24.6441C9.36214 23.962 7.87855 22.6106 7.1705 21.4217C6.33644 20.0213 5.81245 18.088 5.52003 15.3329C5.37722 13.9876 5.3723 13.3355 5.50652 13.5408C5.55769 13.6191 5.9705 14.2519 6.42386 14.947ZM31.7075 26.3552C31.9585 26.5853 31.9928 26.6609 31.9928 26.9852C31.9928 27.2953 31.9533 27.3933 31.7439 27.6027L31.495 27.8516L24.2819 27.8906C16.4635 27.933 16.8895 27.907 16.7207 28.351C16.6235 28.6066 16.7621 28.9373 17.0148 29.0523C17.1533 29.1155 18.91 29.1406 23.1866 29.1406C28.8438 29.1406 29.1625 29.148 29.1235 29.2773C29.1008 29.3525 28.8327 30.7676 28.5278 32.4219C28.2228 34.0762 27.92 35.6381 27.855 35.8929C27.6892 36.5409 27.4305 37.0167 26.97 37.5206C26.4938 38.0416 26.0072 38.3633 25.3261 38.6072L24.8183 38.7891H20.0918H15.3652L14.8574 38.6072C14.1763 38.3633 13.6897 38.0416 13.2135 37.5206C12.753 37.0167 12.4943 36.5409 12.3285 35.8929C12.2635 35.6381 11.9607 34.0762 11.6557 32.4219C11.3508 30.7676 11.0827 29.3525 11.06 29.2773C11.022 29.1515 11.1094 29.1406 12.1603 29.1406C13.2683 29.1406 13.3076 29.135 13.4937 28.9488C13.7484 28.6941 13.7446 28.3641 13.4841 28.1191C13.2857 27.9325 13.2556 27.9291 11.4724 27.8906C10.0707 27.8604 9.62347 27.8259 9.49097 27.738C8.97847 27.398 9.0005 26.5567 9.53058 26.228C9.72347 26.1083 10.6067 26.0977 20.5812 26.0959L31.4221 26.0938L31.7075 26.3552Z" fill="#1E293B"/>
</g>
</svg>
