<svg width="40" height="40" viewBox="0 0 40 40" fill="none" xmlns="http://www.w3.org/2000/svg">
<mask id="mask0_1_4272" style="mask-type:alpha" maskUnits="userSpaceOnUse" x="0" y="0" width="40" height="40">
<rect width="40" height="40" fill="white"/>
</mask>
<g mask="url(#mask0_1_4272)">
<path fill-rule="evenodd" clip-rule="evenodd" d="M0.989713 9.38182C0.484824 9.6399 0.173142 10.0129 0.0393288 10.5188C-0.047767 10.848 -0.00981422 11.4594 0.354845 15.6053C0.582875 18.1971 0.804253 20.5114 0.846901 20.7481C1.08596 22.0753 2.2409 23.4463 3.51878 23.9198C3.74587 24.0039 3.87968 24.0967 3.85746 24.1546C3.83727 24.2073 3.39435 25.6442 2.87327 27.3479C1.88485 30.5795 1.85691 30.7276 2.19153 30.9619C2.56487 31.2235 3.01217 31.0187 3.17055 30.5139C3.21508 30.372 3.37886 29.8417 3.53451 29.3357L3.81763 28.4155L7.81699 28.4358L11.8164 28.456L11.9555 28.8864C12.032 29.1231 12.1913 29.6333 12.3096 30.0201C12.5391 30.7707 12.7589 31.0775 13.0674 31.0775C13.3517 31.0775 13.6684 30.7924 13.6684 30.5364C13.6684 30.3746 12.027 24.8519 11.8138 24.2961C11.789 24.2317 12.0247 24.1976 12.6259 24.1787C13.4338 24.1534 13.4896 24.1404 13.8386 23.8981C14.0951 23.7199 14.2674 23.5152 14.4154 23.2127C14.6071 22.8208 14.6234 22.7185 14.5932 22.0973C14.5362 20.9259 13.9801 20.0495 12.9815 19.5576L12.4594 19.3004L9.40561 19.2613C6.36297 19.2223 6.35076 19.2215 6.0962 19.0399C5.95566 18.9397 5.78757 18.755 5.72262 18.6294C5.63991 18.4694 5.51165 17.3488 5.29395 14.8837C5.093 12.608 4.93852 11.2335 4.85651 10.9903C4.5867 10.1901 3.89306 9.52557 3.07399 9.28228C2.85981 9.21866 2.39788 9.16663 2.04762 9.16663C1.50697 9.16663 1.34702 9.19918 0.989713 9.38182ZM36.8019 9.32298C35.9986 9.63669 35.4137 10.2297 35.1572 10.9903C35.0752 11.2335 34.9207 12.608 34.7198 14.8837C34.5021 17.3488 34.3738 18.4694 34.2911 18.6294C34.2262 18.755 34.0581 18.9397 33.9175 19.0399C33.663 19.2215 33.6508 19.2223 30.6081 19.2613L27.5543 19.3004L27.0322 19.5576C26.0337 20.0495 25.4776 20.9259 25.4205 22.0973C25.3903 22.7185 25.4067 22.8208 25.5984 23.2127C25.7464 23.5152 25.9187 23.7199 26.1752 23.8981C26.5242 24.1404 26.58 24.1534 27.3879 24.1787C27.9891 24.1976 28.2247 24.2317 28.2 24.2961C27.9867 24.8519 26.3454 30.3746 26.3454 30.5364C26.3454 30.7924 26.6621 31.0775 26.9464 31.0775C27.2548 31.0775 27.4747 30.7707 27.7042 30.0201C27.8224 29.6333 27.9817 29.1231 28.0583 28.8864L28.1973 28.456L32.1968 28.4358L36.1961 28.4155L36.4775 29.3357C36.8834 30.6628 36.9841 30.9135 37.146 31.0001C37.496 31.1875 37.9466 31.0084 38.0376 30.6459C38.0728 30.5054 37.8042 29.5179 37.1405 27.3479C36.6194 25.6442 36.1771 24.2088 36.1575 24.158C36.1368 24.1037 36.309 23.9908 36.5746 23.8848C37.3377 23.5798 37.5575 23.1871 37.2113 22.747C37.0096 22.4906 36.78 22.5024 35.9314 22.813L35.3836 23.0134L31.195 23.0154C27.561 23.0172 26.9836 23.0016 26.8354 22.8978C26.4336 22.6163 26.5523 21.6056 27.0542 21.0354C27.5697 20.4497 27.6636 20.4351 30.8971 20.4351C33.4743 20.4351 33.7314 20.423 34.0962 20.2844C34.8868 19.984 35.4212 19.3765 35.573 18.6059C35.6164 18.3853 35.7786 16.7435 35.9333 14.9574C36.088 13.1712 36.2514 11.569 36.2963 11.3968C36.4136 10.9477 36.8745 10.5342 37.3784 10.4261C38.1456 10.2616 38.5837 10.359 38.7624 10.734C38.8529 10.9239 38.8351 11.1468 37.95 20.8742C37.917 21.2373 37.9333 21.2895 38.1264 21.4415C38.5742 21.7937 38.9781 21.5747 39.1364 20.8938C39.1924 20.6531 39.4258 18.3034 39.6551 15.6723C40.1141 10.4073 40.1141 10.4483 39.6602 9.8709C39.5418 9.72027 39.2555 9.50022 39.024 9.38182C38.6538 9.19253 38.5175 9.1671 37.8933 9.1703C37.3882 9.17289 37.0734 9.21694 36.8019 9.32298ZM2.63538 10.4261C3.13925 10.5342 3.60016 10.9477 3.71746 11.3968C3.76238 11.569 3.92577 13.1712 4.08048 14.9574C4.23518 16.7435 4.39733 18.3853 4.44076 18.6059C4.59257 19.3765 5.12696 19.984 5.91755 20.2844C6.28237 20.423 6.53943 20.4351 9.11662 20.4351C12.3502 20.4351 12.444 20.4497 12.9596 21.0354C13.4696 21.6148 13.5814 22.631 13.165 22.9038C13.005 23.0087 12.4406 23.0208 8.68865 23.0004C3.90926 22.9743 4.12555 22.9976 3.27956 22.4184C2.78038 22.0767 2.36392 21.5281 2.15733 20.9402C1.93767 20.3154 1.11296 11.0243 1.25131 10.734C1.43004 10.359 1.86818 10.2616 2.63538 10.4261ZM11.0653 13.2603C9.80642 13.7429 9.01528 15.2034 9.50945 16.1324C9.58927 16.2823 9.80352 16.5107 9.98562 16.6398L10.3168 16.8746L14.1445 16.8976L17.9723 16.9207V22.2293V27.5379L17.4754 27.5695C16.4971 27.6318 15.7724 28.2486 15.5014 29.2494C15.2683 30.1105 15.4374 30.6584 16.0316 30.9676C16.3441 31.1302 23.6697 31.1302 23.9821 30.9676C24.5763 30.6584 24.7454 30.1105 24.5123 29.2494C24.2414 28.2486 23.5167 27.6318 22.5384 27.5695L22.0415 27.5379V22.2293V16.9207L25.8692 16.8976L29.697 16.8746L30.0281 16.6398C30.2102 16.5107 30.4245 16.2823 30.5043 16.1324C30.9985 15.2034 30.2073 13.7429 28.9485 13.2603L28.4973 13.0873L22.0575 13.0834L15.6176 13.0793L15.4255 13.2714C15.1913 13.5055 15.1804 13.7733 15.3939 14.0447L15.5543 14.2487L21.9868 14.2705C28.982 14.2941 28.5556 14.2654 29.0632 14.7459C29.3237 14.9924 29.5244 15.441 29.4373 15.5818C29.3688 15.6929 10.645 15.6929 10.5764 15.5818C10.4893 15.441 10.6901 14.9924 10.9506 14.7459C11.3542 14.3639 11.5382 14.3057 12.4554 14.2695C13.187 14.2407 13.3427 14.2114 13.4923 14.0742C13.7277 13.8585 13.7208 13.5159 13.4763 13.2714C13.2945 13.0895 13.2371 13.0795 12.4003 13.0834C11.6834 13.0866 11.4312 13.1201 11.0653 13.2603ZM20.8677 22.2349V27.5561H20.0069H19.1461V22.2349V16.9137H20.0069H20.8677V22.2349ZM10.6483 24.6021C10.715 24.828 10.9249 25.5147 11.1146 26.128L11.4596 27.2431H7.82967C5.83319 27.2431 4.19974 27.221 4.19974 27.1939C4.19974 27.1339 4.971 24.6222 5.0667 24.3706L5.13486 24.1912H7.831H10.5271L10.6483 24.6021ZM35.362 25.678C35.6098 26.4743 35.813 27.1521 35.8133 27.1844C35.8137 27.2167 34.1806 27.2431 32.1841 27.2431H28.5542L28.8992 26.128C29.0889 25.5147 29.2988 24.8276 29.3656 24.601L29.4872 24.1892L32.1993 24.2098L34.9114 24.2304L35.362 25.678ZM22.7813 28.8407C23.0947 28.9717 23.2833 29.2322 23.3465 29.6215L23.3923 29.9037H20.0069H16.6215L16.6673 29.6215C16.7292 29.24 16.9167 28.974 17.2152 28.8441C17.5822 28.6845 22.4003 28.6816 22.7813 28.8407Z" fill="#1E293B"/>
</g>
</svg>
