<svg width="40" height="40" viewBox="0 0 40 40" fill="none" xmlns="http://www.w3.org/2000/svg">
<mask id="mask0_1_4288" style="mask-type:alpha" maskUnits="userSpaceOnUse" x="0" y="0" width="40" height="40">
<rect width="40" height="40" fill="white"/>
</mask>
<g mask="url(#mask0_1_4288)">
<path fill-rule="evenodd" clip-rule="evenodd" d="M8.1917 8.41941C7.5243 8.56874 7.18513 8.69337 6.53453 9.02825C4.98667 9.82481 3.7464 11.3953 3.35492 13.0545L3.21176 13.6613L2.63255 13.6371C1.19916 13.5773 0.0894542 14.5794 0.00509086 16.0098C-0.0235254 16.4959 0.0514555 16.8762 0.675463 19.4095C1.41933 22.4297 1.46186 22.5384 1.89994 22.5384C2.18572 22.5384 2.32504 22.4577 2.44748 22.2208C2.55413 22.0146 2.51605 21.815 1.85632 19.1224C1.10135 16.0409 1.08516 15.9041 1.4162 15.4057C1.61433 15.1074 2.17798 14.798 2.52317 14.798C2.86109 14.798 3.4306 15.1052 3.61895 15.3892C3.70637 15.5209 4.08761 16.6995 4.46626 18.0085C4.84492 19.3174 5.25173 20.5994 5.37034 20.8574C5.7056 21.5869 6.28707 22.1654 7.07965 22.5581L7.74987 22.8903H19.9979H32.2459L32.9161 22.5581C33.7087 22.1654 34.2902 21.5869 34.6254 20.8574C34.744 20.5994 35.1508 19.3174 35.5295 18.0085C35.9082 16.6995 36.2894 15.5209 36.3768 15.3892C36.5652 15.1052 37.1347 14.798 37.4726 14.798C37.8162 14.798 38.3811 15.1069 38.5771 15.402C38.9187 15.9166 38.916 15.9352 37.8617 20.254C37.3186 22.478 36.8118 24.4402 36.7352 24.6144C36.536 25.0676 36.1381 25.4897 35.7015 25.711L35.3238 25.9024H19.9979H4.67197L4.30129 25.713C3.81857 25.4663 3.47024 25.0957 3.26493 24.6104C2.98416 23.947 2.9374 23.8774 2.72145 23.8022C2.42028 23.6971 2.03575 23.8749 1.9664 24.1513C1.83966 24.6562 2.32731 25.67 2.98127 26.261C3.35554 26.5992 4.22412 27.0733 4.46947 27.0733C4.53859 27.0733 4.59512 27.0973 4.59512 27.1267C4.59512 27.156 4.39754 27.8104 4.15602 28.5808C3.63905 30.2302 3.61841 30.6156 4.01974 31.1202C4.30231 31.4754 4.84156 31.7645 5.22186 31.7645C5.5848 31.7645 6.26291 31.4255 6.44149 31.1548C6.51819 31.0386 6.7422 30.5565 6.93946 30.0834L7.29795 29.2234L19.9854 29.2036L32.6727 29.1838L32.817 29.5164C32.8965 29.6992 33.0748 30.1241 33.2133 30.4604C33.5833 31.3586 34.0853 31.7645 34.8263 31.7645C35.1598 31.7645 35.7086 31.4564 35.9776 31.1182C36.3784 30.6145 36.3548 30.1893 35.8358 28.5651C35.5964 27.8159 35.4007 27.1739 35.4007 27.1381C35.4007 27.1025 35.4572 27.0733 35.5263 27.0733C35.7587 27.0733 36.6203 26.6123 36.9804 26.2954C37.3853 25.9389 37.7651 25.3845 37.9358 24.9008C37.9996 24.7201 38.4972 22.7518 39.0419 20.5267C39.9286 16.9036 40.0281 16.4279 39.9946 15.9718C39.8914 14.5687 38.7749 13.5782 37.363 13.6371L36.7837 13.6614L36.6509 13.1155C36.1959 11.2441 34.9897 9.75773 33.2505 8.92481C31.9435 8.29884 33.0719 8.34959 20.1543 8.33567C11.2721 8.32605 8.5229 8.34529 8.1917 8.41941ZM31.8404 9.6614C33.774 10.2391 35.1498 11.7254 35.525 13.6416L35.6584 14.3227L35.4473 14.5994C35.1502 14.989 35.0931 15.1474 34.4594 17.339C34.1486 18.4141 33.883 19.3068 33.8691 19.3228C33.8551 19.3389 33.6814 19.2445 33.483 19.1131C32.3042 18.3323 28.4251 18.1429 26.0767 18.7515C25.5158 18.8968 25.379 18.9615 24.9928 19.2641L24.7101 19.4856L24.5628 19.3225C24.012 18.7131 21.5633 18.273 19.3939 18.3935C18.7873 18.4272 18.6453 18.4609 18.5012 18.6052C18.281 18.8258 18.2768 19.2101 18.4923 19.4257C18.6442 19.5775 18.7529 19.5892 20.1668 19.6056C22.1624 19.6289 23.3851 19.8476 23.7691 20.2502C24.0447 20.539 24.1418 20.8209 24.1418 21.3316V21.7566H20.1543H16.1667L16.167 21.2679C16.1674 20.7258 16.3191 20.3904 16.6762 20.1426C17.0786 19.8633 17.1832 19.7254 17.1832 19.4746C17.1832 19.1728 16.9176 18.8637 16.6582 18.8637C16.4258 18.8637 15.9397 19.1082 15.7457 19.3227L15.5984 19.4856L15.3031 19.2517C14.8998 18.9323 14.606 18.8209 13.657 18.6275C12.0708 18.3042 9.85958 18.3053 8.2634 18.6302C7.31116 18.824 6.92445 18.9799 6.52367 19.3319C6.36315 19.4728 6.21874 19.5747 6.20279 19.5582C6.18692 19.5417 5.90318 18.5959 5.57237 17.4563C4.89801 15.1334 4.84672 14.9905 4.54422 14.5939L4.32889 14.3116L4.4647 13.6517C4.82647 11.8943 5.91045 10.5746 7.56621 9.87595C8.48514 9.48814 8.33314 9.4926 20.2324 9.50784C30.6697 9.52121 31.4035 9.53091 31.8404 9.6614ZM10.5869 12.3017C10.4482 12.4108 10.3809 12.5384 10.3809 12.6926C10.3809 12.8811 10.3483 12.9215 10.196 12.9215C9.90477 12.9215 9.59906 13.2073 9.59906 13.4796C9.59906 13.833 9.72557 14.0008 10.0694 14.1039C10.2793 14.1668 10.3809 14.2421 10.3809 14.3349C10.3809 14.5889 10.4809 14.7365 10.7215 14.8377C11.1129 15.0022 11.5454 14.7503 11.5512 14.3546C11.5531 14.2299 11.6169 14.171 11.7917 14.1326C12.3158 14.0175 12.5037 13.4734 12.1436 13.1134C12.0381 13.0079 11.8622 12.9215 11.7527 12.9215C11.5916 12.9215 11.5537 12.8836 11.5537 12.7225C11.5537 12.4707 11.2286 12.1396 10.9814 12.1396C10.8777 12.1396 10.7002 12.2126 10.5869 12.3017ZM16.6073 12.3017C16.4685 12.4108 16.4013 12.5384 16.4013 12.6926C16.4013 12.8811 16.3687 12.9215 16.2164 12.9215C15.9251 12.9215 15.6194 13.2073 15.6194 13.4796C15.6194 13.833 15.7459 14.0008 16.0898 14.1039C16.3115 14.1703 16.4013 14.2402 16.4013 14.3463C16.4013 14.7607 16.8247 15.0095 17.2356 14.8367C17.4743 14.7364 17.5741 14.5883 17.5741 14.3349C17.5741 14.2421 17.6757 14.1668 17.8856 14.1039C18.2209 14.0034 18.356 13.8328 18.356 13.5094C18.356 13.2488 18.0315 12.9215 17.7731 12.9215C17.612 12.9215 17.5741 12.8836 17.5741 12.7225C17.5741 12.4707 17.249 12.1396 17.0018 12.1396C16.8981 12.1396 16.7206 12.2126 16.6073 12.3017ZM22.6136 12.3316C22.5081 12.4371 22.4217 12.613 22.4217 12.7225C22.4217 12.8836 22.3837 12.9215 22.2227 12.9215C21.9643 12.9215 21.6398 13.2488 21.6398 13.5094C21.6398 13.8328 21.7748 14.0034 22.1102 14.1039C22.3319 14.1703 22.4217 14.2402 22.4217 14.3463C22.4217 14.7607 22.845 15.0095 23.256 14.8367C23.4946 14.7364 23.5945 14.5883 23.5945 14.3349C23.5945 14.2421 23.6961 14.1668 23.906 14.1039C24.2413 14.0034 24.3763 13.8328 24.3763 13.5094C24.3763 13.2488 24.0519 12.9215 23.7935 12.9215C23.6324 12.9215 23.5945 12.8836 23.5945 12.7225C23.5945 12.4648 23.2673 12.1396 23.0081 12.1396C22.8967 12.1396 22.7192 12.226 22.6136 12.3316ZM28.634 12.3316C28.5284 12.4371 28.442 12.613 28.442 12.7225C28.442 12.8836 28.4041 12.9215 28.2431 12.9215C28.1336 12.9215 27.9577 13.0079 27.8521 13.1134C27.4921 13.4734 27.68 14.0175 28.204 14.1326C28.3789 14.171 28.4427 14.2299 28.4445 14.3546C28.4503 14.7503 28.8829 15.0022 29.2743 14.8377C29.5148 14.7365 29.6148 14.5889 29.6148 14.3349C29.6148 14.2421 29.7165 14.1668 29.9263 14.1039C30.2702 14.0008 30.3967 13.833 30.3967 13.4796C30.3967 13.2073 30.091 12.9215 29.7997 12.9215C29.6474 12.9215 29.6148 12.8811 29.6148 12.6926C29.6148 12.4242 29.3058 12.1396 29.0144 12.1396C28.9107 12.1396 28.7395 12.226 28.634 12.3316ZM12.3376 19.6463C13.1951 19.7485 14.115 19.9465 14.3914 20.0883C14.7523 20.2734 14.9151 20.6279 14.9154 21.2288L14.9158 21.7566H11.7139C9.70492 21.7566 8.36457 21.7249 8.11609 21.6717C7.89827 21.6249 7.55346 21.4749 7.34994 21.3383C7.04861 21.136 6.98497 21.0537 7.00749 20.8954C7.08528 20.3503 7.46019 20.0252 8.18974 19.8704C9.52517 19.5869 11.1175 19.5009 12.3376 19.6463ZM31.5695 19.7624C32.4757 19.9196 32.962 20.1422 33.1617 20.4913L33.3101 20.7506L33.0468 21.0224C32.9019 21.1718 32.5894 21.3894 32.3523 21.5058L31.9213 21.7175L28.6571 21.741L25.3928 21.7645L25.3931 21.2328C25.3936 20.1888 25.7369 19.9569 27.6993 19.6746C28.5967 19.5455 30.5789 19.5905 31.5695 19.7624ZM34.5403 28.5002C34.7605 29.199 34.977 29.8864 35.0214 30.0278C35.1211 30.3458 34.9969 30.5322 34.7081 30.4979C34.5319 30.477 34.4611 30.3512 34.0558 29.3407C33.8057 28.7171 33.5418 28.163 33.4695 28.1092C33.3655 28.0319 30.5476 28.0115 19.9979 28.0115C9.44816 28.0115 6.63031 28.0319 6.52625 28.1092C6.45392 28.163 6.19004 28.7171 5.94 29.3407C5.53468 30.3512 5.46385 30.477 5.28761 30.4979C4.99887 30.5322 4.87463 30.3458 4.9744 30.0278C5.01881 29.8864 5.23531 29.199 5.45548 28.5002L5.85587 27.2296H19.9979H34.1399L34.5403 28.5002Z" fill="#1E293B"/>
</g>
</svg>
