<svg width="40" height="40" viewBox="0 0 40 40" fill="none" xmlns="http://www.w3.org/2000/svg">
<mask id="mask0_1_4264" style="mask-type:alpha" maskUnits="userSpaceOnUse" x="0" y="0" width="40" height="40">
<rect width="40" height="40" fill="white"/>
</mask>
<g mask="url(#mask0_1_4264)">
<path fill-rule="evenodd" clip-rule="evenodd" d="M3.93539 0.151218C2.06313 0.642078 0.631406 2.08403 0.150937 3.9627C0.00773438 4.52262 0 4.88473 0 11.0299C0 15.1054 0.0283594 17.5599 0.0764844 17.6498C0.257187 17.9874 0.987656 17.9639 1.12109 17.6161C1.14906 17.5433 1.1725 14.6654 1.1732 11.2207C1.17477 4.3127 1.17406 4.32333 1.65937 3.35614C2.17242 2.33348 3.23656 1.53387 4.41406 1.28622C5.23711 1.11309 34.7629 1.11309 35.5859 1.28622C37.1691 1.61919 38.3774 2.82755 38.7104 4.41067C38.797 4.82255 38.8258 5.54676 38.8268 7.34512C38.828 9.63903 38.8344 9.7395 38.9874 9.90372C39.1943 10.1258 39.6289 10.1333 39.8438 9.91848C39.9938 9.76848 40 9.65809 40 7.15755C40 4.83919 39.9834 4.48802 39.8491 3.9627C39.3634 2.06364 37.933 0.633249 36.0339 0.147546C35.4602 0.000827508 35.0136 -0.00323501 19.968 0.000905612C5.11328 0.00504624 4.46984 0.0110619 3.93539 0.151218ZM5.52703 3.20591C4.66102 3.41153 3.82242 4.11458 3.41352 4.97778L3.16406 5.50442V13.0825V20.6607L3.34648 21.1126C3.71305 22.0209 4.68883 22.8217 5.68742 23.0337C6.2757 23.1586 33.7243 23.1586 34.3126 23.0337C35.3112 22.8217 36.287 22.0209 36.6535 21.1126L36.8359 20.6607V13.0825V5.50442L36.5865 4.97778C36.2636 4.29622 35.7004 3.73302 35.0188 3.41012L34.4922 3.16067L20.1562 3.14848C11.9861 3.14153 5.69414 3.16622 5.52703 3.20591ZM34.4588 4.4595C34.8794 4.65075 35.2807 5.03864 35.483 5.44926C35.6625 5.8138 35.6643 5.84505 35.6875 9.15676L35.7109 12.4966H20.0039H4.29688L4.29875 9.35208C4.29992 7.49356 4.33344 6.0638 4.38078 5.85598C4.5393 5.15981 5.08609 4.5863 5.76727 4.40192C6.05687 4.32348 9.04508 4.30606 20.1562 4.31778C32.9141 4.33122 34.2048 4.34403 34.4588 4.4595ZM15.6271 6.37825C15.0992 6.57067 14.5184 7.19458 14.342 7.75887C14.0249 8.77309 14.507 9.89731 15.457 10.3593C15.9153 10.5821 16.7656 10.5949 17.2505 10.3862C17.6989 10.1934 18.2134 9.6852 18.3912 9.25965L18.5077 8.98098H20H21.4923L21.6088 9.25965C21.7866 9.6852 22.3011 10.1934 22.7495 10.3862C23.2344 10.5949 24.0847 10.5821 24.543 10.3593C24.9399 10.1662 25.3816 9.71005 25.5749 9.29348C25.8213 8.76216 25.8013 7.97098 25.528 7.44676C24.9691 6.37473 23.692 5.95106 22.6266 6.48419C22.1997 6.69794 21.7662 7.15903 21.6248 7.54981L21.5311 7.80911H20H18.4689L18.3752 7.54981C18.2341 7.15966 17.8008 6.69825 17.3734 6.48302C16.8913 6.24028 16.1308 6.19466 15.6271 6.37825ZM16.8988 7.59052C17.1223 7.70528 17.3431 8.13442 17.3434 8.45481C17.3438 8.84544 16.958 9.2795 16.5533 9.3438C16.1897 9.40153 15.7355 9.19216 15.5825 8.89622C15.1295 8.02005 16.018 7.13856 16.8988 7.59052ZM23.9614 7.53364C24.2573 7.61848 24.5312 8.01872 24.5312 8.36583C24.5312 8.79153 24.3577 9.09059 24.0166 9.25247C23.6071 9.44676 23.2283 9.36848 22.9102 9.02387C22.7149 8.81239 22.6562 8.67911 22.6562 8.44684C22.6562 8.04989 22.9335 7.64106 23.284 7.52122C23.5484 7.43083 23.6067 7.43192 23.9614 7.53364ZM39.1797 11.8837C38.8206 12.0801 38.8281 11.9773 38.8275 16.6717C38.8272 19.2779 38.7942 21.3404 38.7481 21.6372C38.518 23.1199 37.3498 24.4301 35.8647 24.8707C35.4808 24.9847 33.972 24.9966 20 24.9966C6.02797 24.9966 4.51922 24.9847 4.13531 24.8707C3.46672 24.6723 3.01445 24.409 2.47391 23.9033C1.60922 23.0945 1.17625 22.0197 1.1732 20.675C1.17164 19.9756 1.1075 19.8096 0.796953 19.7013C0.534531 19.6098 0.130547 19.7472 0.0507812 19.9553C0.0228125 20.028 0 20.4482 0 20.889C0 22.3418 0.443594 23.5129 1.375 24.519C2.27562 25.4917 3.50266 26.1021 4.78156 26.2136C5.29586 26.2585 5.38852 26.2875 5.35687 26.3936C5.06641 27.3661 2.89062 36.836 2.89062 37.1276C2.89062 38.0023 3.32875 38.7008 4.14305 39.1244C4.61398 39.3694 4.68844 39.385 5.23438 39.3534C5.90641 39.3143 6.29539 39.1468 6.73234 38.7081C7.0175 38.4218 7.25867 37.987 9.35414 33.981L10.437 31.9107L15.2185 29.1211L20 26.3316L24.7815 29.1211L29.563 31.9107L30.6459 33.981C32.7608 38.0242 33.0016 38.4585 33.2776 38.7272C33.712 39.15 34.104 39.315 34.7656 39.3534C35.3116 39.385 35.386 39.3694 35.857 39.1244C36.6712 38.7008 37.1094 38.0023 37.1094 37.1276C37.1094 36.836 34.9336 27.3661 34.6431 26.3936C34.6115 26.2875 34.7041 26.2585 35.2184 26.2136C37.4 26.0233 39.3045 24.4097 39.8459 22.2928C39.9909 21.7259 40 21.4124 40 16.9827C40 14.3935 39.9781 12.2181 39.9515 12.1486C39.9055 12.0286 39.5324 11.7907 39.3984 11.7958C39.3641 11.7972 39.2656 11.8367 39.1797 11.8837ZM35.6875 17.0865L35.6641 20.4263L35.4366 20.8368C35.196 21.271 34.863 21.5718 34.4166 21.7584C34.0084 21.929 5.99164 21.929 5.58344 21.7584C5.13695 21.5718 4.80398 21.271 4.56336 20.8368L4.33594 20.4263L4.3125 17.0865L4.28914 13.7466H20H35.7109L35.6875 17.0865ZM15.9268 15.6723C15.5373 15.7405 14.8913 16.1958 14.63 16.5864C14.3014 17.0774 14.1896 17.5082 14.2523 18.0423C14.4242 19.5075 15.9448 20.364 17.3118 19.7657C17.7002 19.5957 18.2495 19.0408 18.3761 18.6908L18.4689 18.4341H20H21.5311L21.6276 18.7008C21.6806 18.8475 21.8667 19.1147 22.0412 19.2944C23.0724 20.357 24.7669 20.1276 25.4979 18.8265C25.7062 18.4556 25.7385 18.3204 25.7402 17.8109C25.742 17.3039 25.7105 17.1659 25.5114 16.8065C25.2575 16.3482 24.9895 16.0912 24.5012 15.8379C24.0525 15.6051 23.2223 15.6016 22.7222 15.8305C22.284 16.0311 21.7599 16.5514 21.6276 16.9174L21.5311 17.1841H20H18.4689L18.3724 16.9174C18.2405 16.5524 17.7145 16.0293 17.2915 15.8421C16.9369 15.6852 16.3032 15.6064 15.9268 15.6723ZM16.8776 16.9901C17.0036 17.0553 17.1601 17.2118 17.2252 17.3378C17.4673 17.806 17.3054 18.4068 16.8776 18.6281C16.1923 18.9825 15.4688 18.5291 15.4688 17.7454C15.4688 17.0575 16.2244 16.6523 16.8776 16.9901ZM24.3118 17.1753C24.6936 17.6026 24.5632 18.3705 24.0651 18.6281C23.207 19.0718 22.3308 18.1963 22.7745 17.3385C22.9466 17.0054 23.2484 16.8632 23.7063 16.8993C24.0199 16.924 24.1334 16.9757 24.3118 17.1753ZM11.8455 26.6177C10.054 30.1474 5.96812 37.8069 5.80609 37.9396C5.20336 38.4331 4.24164 38.0829 4.10031 37.3186C4.06742 37.1404 4.40992 35.5711 5.27203 31.9497C5.94203 29.1353 6.52547 26.7008 6.56844 26.5396L6.64664 26.2466H9.34023H12.0339L11.8455 26.6177ZM17.6376 26.2914C17.5453 26.3836 11.6028 29.8286 11.5783 29.804C11.5642 29.79 11.968 28.9845 12.4755 28.014L13.3984 26.2496L15.5404 26.2481C16.7184 26.2473 17.6622 26.2668 17.6376 26.2914ZM27.5245 28.014C28.032 28.9845 28.4363 29.7894 28.4229 29.8029C28.3987 29.827 22.455 26.384 22.3645 26.2934C22.3388 26.2676 23.2816 26.2473 24.4596 26.2481L26.6016 26.2496L27.5245 28.014ZM33.4315 26.5396C33.4745 26.7008 34.0573 29.1353 34.7268 31.9497C35.5798 35.5358 35.9304 37.1422 35.8985 37.3186C35.7609 38.0818 34.7958 38.4335 34.1946 37.9396C34.0344 37.8079 30.2303 30.6744 28.1154 26.5396L27.9655 26.2466H30.6595H33.3534L33.4315 26.5396Z" fill="#1E293B"/>
</g>
</svg>
